<?xml version="1.0" encoding="utf-8"?>
<!-- Generator: Adobe Illustrator 16.0.4, SVG Export Plug-In . SVG Version: 6.00 Build 0)  -->
<!DOCTYPE svg PUBLIC "-//W3C//DTD SVG 1.1//EN" "http://www.w3.org/Graphics/SVG/1.1/DTD/svg11.dtd">
<svg version="1.1" id="Ebene_1" xmlns="http://www.w3.org/2000/svg" xmlns:xlink="http://www.w3.org/1999/xlink" x="0px" y="0px"
	 width="655.77px" height="225.481px" viewBox="0 0 655.77 225.481" enable-background="new 0 0 655.77 225.481"
	 xml:space="preserve">
<circle fill="none" stroke="#FFFFFF" stroke-width="3.705" stroke-linejoin="round" cx="110.965" cy="112.469" r="97.555"/>
<g>
	<defs>
		<polygon id="SVGID_1_" points="108.191,155.682 186.933,155.682 147.562,98.049 		"/>
	</defs>
	<clipPath id="SVGID_2_">
		<use xlink:href="#SVGID_1_"  overflow="visible"/>
	</clipPath>
	
		<line clip-path="url(#SVGID_2_)" fill="none" stroke="#FFFFFF" stroke-width="3.238" stroke-linejoin="round" x1="147.562" y1="119.415" x2="120.938" y2="158.576"/>
	<use xlink:href="#SVGID_1_"  overflow="visible" fill="none" stroke="#FFFFFF" stroke-miterlimit="10"/>
</g>
<polygon fill="none" stroke="#FFFFFF" stroke-width="3.705" points="147.562,98.05 108.191,155.682 186.932,155.682 "/>
<line fill="none" stroke="#FFFFFF" stroke-width="3.705" stroke-linejoin="round" x1="147.562" y1="98.785" x2="147.562" y2="156.027"/>
<g>
	<defs>
		<polygon id="SVGID_3_" points="44.123,127.016 117.016,127.016 80.569,34.308 		"/>
	</defs>
	<clipPath id="SVGID_4_">
		<use xlink:href="#SVGID_3_"  overflow="visible"/>
	</clipPath>
	
		<line clip-path="url(#SVGID_4_)" fill="none" stroke="#FFFFFF" stroke-width="3.238" stroke-linejoin="round" x1="80.997" y1="92.463" x2="44.106" y2="127.46"/>
	
		<line clip-path="url(#SVGID_4_)" fill="none" stroke="#FFFFFF" stroke-width="3.238" stroke-linejoin="round" x1="80.569" y1="71.474" x2="52.548" y2="98.088"/>
	<use xlink:href="#SVGID_3_"  overflow="visible" fill="none" stroke="#FFFFFF" stroke-miterlimit="10"/>
</g>
<polygon fill="none" stroke="#FFFFFF" stroke-width="3.705" points="80.569,34.308 44.122,127.016 117.016,127.016 "/>
<line fill="none" stroke="#FFFFFF" stroke-width="3.705" stroke-linejoin="round" x1="80.569" y1="37.815" x2="80.569" y2="168.241"/>
<line fill="none" stroke="#FFFFFF" stroke-width="3.705" stroke-linejoin="round" x1="186.89" y1="52.375" x2="116.557" y2="98.251"/>
<line fill="none" stroke="#FFFFFF" stroke-width="3.705" stroke-linejoin="round" x1="24.397" y1="68.404" x2="62.024" y2="80.782"/>
<polyline fill="none" stroke="#FFFFFF" stroke-width="3.705" stroke-linejoin="round" points="156.913,111.993 194.317,124.296 
	168.756,128.9 "/>
<line fill="none" stroke="#FFFFFF" stroke-width="3.705" stroke-linejoin="round" x1="104.455" y1="94.738" x2="141.347" y2="106.873"/>
<polyline fill="none" stroke="#FFFFFF" stroke-width="3.705" stroke-linejoin="round" points="121.104,137.483 23.888,154.994 
	175.13,186.589 "/>
<g>
	<path fill="#FFFFFF" d="M235.566,70.706h10.844l7.696,29.24h0.1l9.195-29.24h10.294l9.195,29.24h0.1l7.696-29.24h10.844
		l-11.744,39.793h-12.743l-8.445-26.271h-0.1l-8.445,26.271H247.31L235.566,70.706z"/>
	<path fill="#FFFFFF" d="M306.227,70.706h11.094v39.793h-11.094V70.706z"/>
	<path fill="#FFFFFF" d="M325.416,70.706h11.093v29.57h24.938v10.223h-36.031V70.706z"/>
	<path fill="#FFFFFF" d="M366.542,70.706h33.48c11.094,0,14.992,4.013,14.992,13.851v12.092c0,9.838-3.898,13.851-14.992,13.851
		h-33.48V70.706z M377.636,100.276h19.689c4.746,0,6.596-1.484,6.596-7.146v-5.386c0-5.661-1.85-7.146-6.596-7.146h-19.689V100.276z
		"/>
	<path fill="#FFFFFF" d="M421.71,70.706h31.934c8.846,0,13.143,2.639,13.143,10.443c0,6.815-2.248,8.134-5.348,9.124v0.164
		c4.848,0.66,6.646,3.518,6.646,9.509c0,8.739-4.697,10.553-11.043,10.553H421.71V70.706z M432.804,86.48h19.641
		c2.049,0,3.248-0.824,3.248-3.078c0-2.308-1.199-3.133-3.248-3.133h-19.641V86.48z M432.804,100.935h19.891
		c2.398,0,3.998-0.604,3.998-2.913c0-2.693-1.6-3.298-3.998-3.298h-19.891V100.935z"/>
	<path fill="#FFFFFF" d="M490.821,70.706h14.443l19.889,39.793H512.81l-3.447-7.035h-22.488l-3.248,7.035h-12.393L490.821,70.706z
		 M491.022,94.889h14.191l-7.195-14.949L491.022,94.889z"/>
	<path fill="#FFFFFF" d="M528.3,84.667c0-11.652,5.947-14.4,15.941-14.4h13.043c15.791,0,17.84,3.737,17.74,15.005h-11.094v-1.1
		c0-2.857-1.898-3.683-5.197-3.683H546.64c-5.846,0-6.945,3.023-6.945,7.97v4.287c0,5.771,1.1,7.97,6.346,7.97h11.844
		c4.998,0,6.496-0.55,6.496-5.496h11.094v3.737c0,6.705-2.197,11.981-13.342,11.981h-17.891c-9.994,0-15.941-2.748-15.941-14.399
		V84.667z"/>
	<path fill="#FFFFFF" d="M582.169,70.706h11.094v14.181h23.387V70.706h11.096v39.793h-11.096v-15.06h-23.387v15.06h-11.094V70.706z"
		/>
</g>
<g>
	<path fill="#FFFFFF" d="M265.684,142.838v1.451c0.048,3.031-0.242,4.525-1.112,5.801c-1.305,1.889-3.384,2.637-7.734,2.812
		l-5.221,0.043c-3.48,0-5.027-0.176-6.671-0.746c-2.997-1.012-4.544-3.252-4.931-7.207c-0.193-1.494-0.338-4.967-0.338-6.988
		c0-6.416,0-7.074,0.338-8.701c0.532-2.988,2.997-5.229,6.526-5.844c1.789-0.309,3.916-0.439,8.266-0.439
		c4.061,0,5.559,0.219,7.203,1.055c1.692,0.834,2.804,2.549,3.045,4.658c0.097,0.922,0.145,1.494,0.242,3.559h-3.625v-0.922
		c-0.097-4.791-1.015-5.537-6.961-5.537c-2.32,0-5.607,0.131-6.864,0.264c-3.384,0.395-4.351,2.021-4.351,7.162
		c0,16.787,0,16.832,9.088,16.832c8.459,0,9.523-0.615,9.523-5.494v-1.758H265.684z"/>
	<path fill="#FFFFFF" d="M304.688,146.442l-2.465,6.197h-3.867l11.795-29.312h5.124l12.037,29.312h-3.819l-2.514-6.197H304.688z
		 M312.761,126.008l-7.058,17.797h14.212L312.761,126.008z"/>
	<path fill="#FFFFFF" d="M397.687,152.639h-3.625v-23.467c0-1.143,0-2.33,0.049-3.516h-0.098c-0.387,0.922-0.387,0.922-0.482,1.143
		c-0.098,0.264-0.242,0.57-0.678,1.582l-10.973,24.258h-3.674l-10.973-23.951c-0.436-0.922-0.822-1.801-1.209-2.725h-0.096
		c0.047,1.1,0.047,2.154,0.047,3.209v23.467h-3.625v-29.312h6.285l8.604,18.984c0.918,2.021,1.838,4.088,2.707,6.109h0.098
		c0.869-2.021,1.787-4.088,2.707-6.109l8.555-18.984h6.381V152.639z"/>
	<path fill="#FFFFFF" d="M435.626,123.327h13.488c4.301,0,5.559,0.133,7.008,0.791c2.514,1.143,3.674,3.736,3.674,8.219
		c0,4.834-1.4,7.338-4.688,8.393c-1.16,0.352-1.5,0.352-6.527,0.439h-9.328v11.471h-3.627V123.327z M447.856,138.313
		c7.105,0,8.314-0.836,8.314-5.625c0-4.395-0.531-5.67-2.609-6.24c-0.773-0.221-1.16-0.221-4.545-0.264h-9.764v12.129H447.856z"/>
	<path fill="#FFFFFF" d="M499.526,152.639h-3.627v-29.312h3.627V152.639z"/>
	<path fill="#FFFFFF" d="M565.022,152.639h-5.947l-13.535-19.951c-1.691-2.549-2.271-3.385-2.9-4.352l-1.449-2.197h-0.098
		c0.049,1.451,0.049,2.945,0.049,4.395v22.105h-3.625v-29.312h5.945l11.746,17.49c3.529,5.186,3.529,5.186,6.141,9.141h0.096
		c-0.049-1.449-0.049-2.9-0.049-4.395v-22.236h3.627V152.639z"/>
	<path fill="#FFFFFF" d="M627.181,138.092c0.096,1.055,0.096,1.582,0.096,3.252v1.979c0,4.658-0.725,6.68-2.949,8.174
		c-1.74,1.143-3.914,1.449-10.295,1.449c-6.285,0-8.701-0.482-10.732-2.152c-2.176-1.846-2.803-4-2.756-9.977v-3.207v-1.275
		c0-5.404,0.436-7.865,1.74-9.932c1.258-1.934,3.529-3.076,6.623-3.252c1.305-0.088,3.143-0.131,5.463-0.131
		c5.51,0,7.01,0.131,8.652,0.703c2.562,0.922,3.818,2.504,4.061,5.186c0.098,0.791,0.098,0.922,0.098,2.943h-3.578
		c-0.049-5.713-0.531-5.977-10.344-5.977c-6.188,0-7.688,0.572-8.557,3.297c-0.387,1.23-0.531,3.646-0.531,8.744
		c0,7.604,0.096,8.746,1.062,10.152c1.111,1.67,3.045,2.064,9.959,2.064c7.686,0,8.459-0.658,8.459-7.426
		c0-0.309,0-0.967-0.049-1.758h-10.248v-2.857H627.181z"/>
</g>
</svg>
