<svg width="86" height="86" xmlns="http://www.w3.org/2000/svg" xmlns:xlink="http://www.w3.org/1999/xlink" xml:space="preserve" overflow="hidden"><defs><clipPath id="clip0"><rect x="272" y="220" width="86" height="86"/></clipPath></defs><g clip-path="url(#clip0)" transform="translate(-272 -220)"><path d="M309.921 276.438C315.636 273.472 321.999 271.97 328.438 272.066L328.814 272.066C323.958 268.165 317.957 265.962 311.73 265.795 307.588 265.781 303.493 266.677 299.735 268.42 303.651 270.355 307.12 273.086 309.921 276.438Z" fill="#133525" fill-rule="nonzero" fill-opacity="1"/><path d="M283.207 286.292C297.486 285.163 304.931 279.824 305.424 279.465 306.114 278.877 306.838 278.33 307.591 277.826 296.546 265.051 276.479 266.583 276.479 266.583L276.479 286.569Z" fill="#133525" fill-rule="nonzero" fill-opacity="1"/><path d="M350.35 282.18C349.657 281.533 348.921 280.934 348.146 280.388L348.146 269.898C351.181 268.847 353.179 265.942 353.073 262.731 353.073 258.252 347.805 248.237 346.354 248.237 344.903 248.237 339.635 258.288 339.635 262.731 339.529 265.942 341.527 268.847 344.562 269.898L344.562 278.301C341.171 276.676 337.542 275.602 333.812 275.121L333.812 257.41C337.969 256.514 341.105 252.304 341.105 246.436 341.105 239.753 334.198 225.375 332.021 225.375 329.844 225.375 322.937 239.753 322.937 246.436 322.937 252.304 326.073 256.478 330.229 257.41L330.229 274.798C329.62 274.798 329.011 274.753 328.438 274.753 320.035 274.753 312.259 277.253 307.152 281.589 307.063 281.651 299.189 287.77 283.404 288.997L276.479 288.979 276.479 298.833 353.521 298.833 353.521 284.688Z" fill="#133525" fill-rule="nonzero" fill-opacity="1"/><path d="M286.333 236.125 290.812 236.125 290.812 237.917 286.333 237.917Z" fill="#133525" fill-rule="nonzero" fill-opacity="1"/><path d="M292.461 232.846 289.343 229.666 290.615 228.367 293.724 231.547 292.461 232.846Z" fill="#133525" fill-rule="nonzero" fill-opacity="1"/><path d="M303.354 237.128C303.354 240.097 300.948 242.503 297.979 242.503 295.011 242.503 292.604 240.097 292.604 237.128 292.604 234.16 295.011 231.753 297.979 231.753 300.948 231.753 303.354 234.16 303.354 237.128Z" fill="#133525" fill-rule="nonzero" fill-opacity="1"/><path d="M297.083 225.375 298.875 225.375 298.875 229.854 297.083 229.854Z" fill="#133525" fill-rule="nonzero" fill-opacity="1"/><path d="M305.146 236.125 309.625 236.125 309.625 237.917 305.146 237.917Z" fill="#133525" fill-rule="nonzero" fill-opacity="1"/><path d="M303.497 232.846 306.615 229.666 305.343 228.367 302.234 231.547 303.497 232.846Z" fill="#133525" fill-rule="nonzero" fill-opacity="1"/><path d="M292.461 241.294 289.343 244.483 290.615 245.773 293.724 242.593 292.461 241.294Z" fill="#133525" fill-rule="nonzero" fill-opacity="1"/><path d="M297.083 244.295 298.875 244.295 298.875 248.774 297.083 248.774Z" fill="#133525" fill-rule="nonzero" fill-opacity="1"/><path d="M303.497 241.294 306.615 244.483 305.343 245.773 302.234 242.593 303.497 241.294Z" fill="#133525" fill-rule="nonzero" fill-opacity="1"/></g></svg>