<?xml version="1.0" standalone="no"?>
<!DOCTYPE svg PUBLIC "-//W3C//DTD SVG 20010904//EN"
 "http://www.w3.org/TR/2001/REC-SVG-20010904/DTD/svg10.dtd">
<svg version="1.0" xmlns="http://www.w3.org/2000/svg"
 width="538.000000pt" height="434.000000pt" viewBox="0 0 538.000000 434.000000"
 preserveAspectRatio="xMidYMid meet">

<g transform="translate(0.000000,434.000000) scale(0.100000,-0.100000)"
fill="#000000" stroke="none">
<path d="M2760 3660 c-63 -94 -130 -194 -148 -222 l-34 -51 62 7 c50 6 60 5
54 -6 -11 -19 -91 -143 -145 -225 -45 -69 -47 -73 -25 -73 12 0 46 7 75 16 29
8 55 13 58 10 4 -4 -147 -249 -244 -395 -26 -38 -29 -53 -10 -46 15 6 382 75
397 75 7 0 10 -48 8 -147 l-3 -148 -79 -7 c-87 -8 -201 -40 -253 -70 -18 -11
-33 -21 -33 -23 0 -2 19 -14 43 -28 55 -33 143 -117 196 -189 l43 -58 504 0
504 0 -15 24 c-26 39 -126 118 -218 171 l-87 50 0 99 0 99 48 -7 c26 -3 87 -9
136 -13 76 -5 88 -4 80 8 -11 18 -74 114 -125 192 -53 79 -52 87 10 66 18 -6
35 -9 38 -6 3 4 -20 45 -51 91 -31 47 -56 91 -56 97 0 7 11 9 30 6 17 -4 30
-3 30 1 0 4 -25 43 -56 87 -30 44 -71 104 -91 132 -19 29 -38 51 -43 48 -4 -2
-25 -31 -46 -64 -21 -33 -44 -60 -50 -61 -10 0 -64 79 -193 279 l-15 23 63 -7
c49 -6 62 -4 56 5 -4 7 -62 92 -127 189 -66 97 -129 191 -140 209 -11 17 -23
32 -26 32 -4 0 -59 -77 -122 -170z m438 -562 c28 -6 52 -15 52 -20 0 -5 -14
-30 -32 -55 -35 -52 -28 -56 -88 37 -36 54 -37 64 -7 56 12 -4 46 -12 75 -18z
m-105 -375 c42 -9 77 -20 77 -24 0 -5 -27 -50 -61 -101 l-61 -93 33 -3 c18 -2
68 1 112 7 126 17 117 22 117 -65 0 -74 -1 -76 -22 -71 -13 3 -63 17 -112 31
-49 14 -124 31 -168 37 l-78 11 0 150 0 151 43 -7 c23 -4 77 -14 120 -23z"/>
<path d="M1868 2995 l-78 -114 30 -3 31 -3 -51 -79 c-28 -43 -49 -80 -46 -83
3 -3 19 -1 35 5 17 6 32 8 35 4 2 -4 -27 -54 -65 -112 -37 -58 -68 -109 -69
-114 0 -8 121 -1 182 11 l28 6 0 -121 0 -121 -67 -40 c-67 -39 -181 -129 -182
-143 -1 -5 217 -8 484 -8 352 0 485 3 485 11 0 6 -35 47 -78 89 -59 60 -97 88
-158 117 -76 37 -79 40 -82 76 -4 41 0 43 76 28 23 -5 42 -7 42 -4 0 2 -18 35
-39 73 -22 39 -37 71 -33 71 4 1 15 1 25 0 23 -3 22 3 -13 54 -35 50 -36 55
-14 55 9 0 14 4 12 8 -6 15 -93 131 -98 131 -3 1 -27 -30 -53 -69 -32 -48 -43
-70 -32 -70 20 0 19 -23 -2 -43 -17 -14 -21 -11 -59 48 -23 35 -40 66 -37 69
3 2 18 0 34 -6 16 -5 33 -8 38 -6 6 1 -12 36 -40 77 -27 40 -49 78 -49 82 0 5
11 9 25 9 14 0 25 2 25 5 0 2 -26 42 -58 87 -31 46 -65 95 -75 111 -10 15 -21
27 -25 27 -4 0 -42 -52 -84 -115z m230 -501 c58 -7 62 -15 36 -66 l-16 -31 61
7 61 7 0 -34 c0 -40 -11 -47 -78 -47 -26 0 -78 -7 -117 -15 -38 -8 -71 -15
-72 -15 -2 0 -3 48 -3 106 l0 106 38 -6 c20 -3 61 -8 90 -12z"/>
<path d="M1880 1225 c0 -57 4 -95 10 -95 6 0 10 38 10 95 0 57 -4 95 -10 95
-6 0 -10 -38 -10 -95z"/>
<path d="M2094 1303 c-3 -10 -10 -26 -15 -35 -5 -11 -5 -19 1 -23 6 -3 10 -31
10 -61 0 -30 5 -54 10 -54 6 0 10 26 10 59 0 48 3 60 18 64 16 4 16 5 0 6 -22
1 -25 41 -3 41 8 0 15 5 15 10 0 17 -40 11 -46 -7z"/>
<path d="M2640 1227 l0 -94 44 -1 c53 -2 69 13 68 68 -1 55 -8 62 -53 58 -38
-3 -39 -3 -39 29 0 18 -4 33 -10 33 -6 0 -10 -38 -10 -93z m85 -27 c0 -40 -3
-45 -24 -48 -27 -4 -41 12 -41 49 0 31 18 51 45 47 17 -3 20 -11 20 -48z"/>
<path d="M3200 1291 c0 -28 -3 -30 -42 -33 l-43 -3 -3 -48 c-4 -63 9 -78 64
-75 l44 1 0 94 c0 55 -4 93 -10 93 -5 0 -10 -13 -10 -29z m-12 -53 c14 -14 16
-57 3 -76 -4 -8 -19 -12 -32 -10 -20 2 -25 10 -27 42 -4 50 26 74 56 44z"/>
<path d="M2958 1262 c-27 -3 -28 -5 -28 -68 0 -36 4 -64 10 -64 6 0 10 22 10
49 0 57 23 88 45 58 15 -21 25 -22 25 -2 0 19 -28 32 -62 27z"/>
<path d="M1940 1195 c0 -77 18 -88 22 -14 6 95 68 93 68 -2 0 -27 5 -49 10
-49 11 0 14 88 4 114 -4 12 -20 16 -55 16 l-49 0 0 -65z"/>
<path d="M2158 1235 c-8 -17 -8 -37 -2 -63 8 -34 12 -37 49 -40 47 -4 65 14
65 68 0 46 -15 60 -62 60 -31 0 -41 -5 -50 -25z m80 3 c13 -13 16 -47 6 -72
-4 -10 -18 -16 -35 -16 -22 0 -30 6 -35 26 -13 52 31 95 64 62z"/>
<path d="M2296 1244 c-10 -26 12 -53 46 -56 44 -4 53 -38 11 -38 -16 0 -34 5
-41 12 -17 17 -27 2 -12 -17 9 -11 26 -15 54 -13 38 3 41 5 44 35 3 31 1 33
-37 39 -31 5 -41 11 -41 25 0 22 39 26 58 7 13 -13 27 -5 17 11 -10 18 -92 14
-99 -5z"/>
<path d="M2500 1206 c0 -64 12 -77 69 -74 l41 1 0 64 c0 35 -4 63 -10 63 -5 0
-10 -19 -10 -42 0 -54 -11 -71 -41 -66 -21 3 -24 9 -27 56 -4 68 -22 67 -22
-2z"/>
<path d="M2789 1239 c-13 -26 -5 -89 13 -101 22 -13 75 -9 88 7 16 19 5 34
-12 17 -11 -11 -68 -17 -68 -8 0 2 -3 11 -6 20 -5 13 2 16 45 16 54 0 62 10
41 51 -16 28 -85 27 -101 -2z m79 -1 c21 -21 13 -28 -28 -28 -38 0 -40 2 -30
20 12 22 40 26 58 8z"/>
<path d="M3256 1245 c-10 -28 -7 -90 6 -103 13 -13 56 -16 82 -6 17 7 22 34 6
34 -5 0 -10 -5 -10 -11 0 -18 -64 -6 -68 14 -3 14 4 17 43 17 46 0 46 0 43 33
-3 31 -5 32 -49 35 -36 2 -48 -1 -53 -13z m82 -17 c3 -15 -4 -18 -32 -18 -24
0 -36 5 -36 14 0 30 63 33 68 4z"/>
<path d="M3390 1194 c0 -36 4 -64 10 -64 6 0 10 22 10 50 0 40 4 51 21 60 36
20 49 6 49 -55 0 -32 4 -55 10 -55 7 0 10 24 8 63 l-3 62 -52 1 -53 2 0 -64z"/>
<path d="M1707 914 c-4 -4 -7 -47 -7 -96 0 -70 3 -88 15 -88 11 0 15 18 17 78
l3 77 46 -75 c31 -52 51 -75 65 -75 17 0 19 8 19 89 0 63 -4 91 -12 94 -10 3
-13 -17 -13 -80 l0 -83 -48 80 c-45 74 -68 96 -85 79z"/>
<path d="M2130 910 c0 -5 5 -10 10 -10 6 0 10 5 10 10 0 6 -4 10 -10 10 -5 0
-10 -4 -10 -10z"/>
<path d="M2610 825 c0 -57 4 -95 10 -95 6 0 10 38 10 95 0 57 -4 95 -10 95 -6
0 -10 -38 -10 -95z"/>
<path d="M3060 825 c0 -57 4 -95 10 -95 6 0 10 14 10 30 0 17 4 30 9 30 5 0
19 -13 31 -30 12 -16 28 -30 37 -30 10 0 6 11 -17 36 l-31 36 27 29 c36 37 11
39 -28 2 l-28 -27 0 57 c0 31 -4 57 -10 57 -6 0 -10 -38 -10 -95z"/>
<path d="M3250 825 l0 -95 60 0 c33 0 60 4 60 10 0 6 -22 10 -50 10 l-50 0 0
35 c0 35 0 35 45 35 25 0 45 5 45 10 0 6 -20 10 -45 10 -43 0 -45 1 -45 30 0
29 1 30 50 30 28 0 50 5 50 10 0 6 -27 10 -60 10 l-60 0 0 -95z"/>
<path d="M3390 910 c0 -5 5 -10 10 -10 6 0 10 5 10 10 0 6 -4 10 -10 10 -5 0
-10 -4 -10 -10z"/>
<path d="M3462 908 c-7 -7 -12 -20 -12 -29 0 -10 -6 -20 -12 -22 -10 -4 -10
-6 0 -6 8 -1 12 -20 12 -61 0 -33 4 -60 10 -60 6 0 10 25 10 55 0 48 3 57 23
65 l22 9 -22 0 c-13 1 -23 7 -23 15 0 7 10 21 23 29 21 15 21 16 2 16 -12 1
-26 -4 -33 -11z"/>
<path d="M3660 825 c0 -57 4 -95 10 -95 6 0 10 38 10 95 0 57 -4 95 -10 95 -6
0 -10 -38 -10 -95z"/>
<path d="M2040 876 c0 -8 -6 -17 -12 -19 -10 -4 -10 -6 0 -6 8 -1 12 -18 12
-50 0 -51 16 -75 46 -69 20 4 41 34 31 44 -4 4 -14 -1 -21 -12 -21 -27 -38 -6
-34 42 2 31 8 40 28 45 l25 7 -27 1 c-18 1 -28 7 -28 16 0 8 -4 15 -10 15 -5
0 -10 -6 -10 -14z"/>
<path d="M2978 863 c-27 -4 -28 -6 -28 -69 0 -36 4 -64 10 -64 6 0 10 18 10
41 0 46 14 79 34 79 8 0 16 -7 20 -15 3 -8 10 -15 15 -15 6 0 7 8 4 18 -7 17
-24 33 -33 30 -3 0 -17 -3 -32 -5z"/>
<path d="M1905 849 c-11 -17 2 -21 24 -7 15 9 26 10 38 2 33 -20 26 -34 -16
-34 -42 0 -63 -20 -53 -50 8 -23 24 -30 70 -28 l42 1 0 48 c0 71 -6 79 -55 79
-24 0 -47 -5 -50 -11z m70 -62 c24 -18 11 -37 -26 -37 -41 0 -40 43 2 49 3 1
13 -5 24 -12z"/>
<path d="M2130 795 c0 -37 4 -65 10 -65 6 0 10 28 10 65 0 37 -4 65 -10 65 -6
0 -10 -28 -10 -65z"/>
<path d="M2192 848 c-15 -15 -16 -72 -2 -99 11 -19 63 -27 86 -11 18 11 26 66
15 95 -9 23 -16 27 -49 27 -21 0 -43 -5 -50 -12z m77 -21 c5 -13 7 -35 4 -51
-5 -23 -10 -27 -37 -24 -27 3 -31 7 -34 36 -2 18 2 40 9 48 18 21 48 17 58 -9z"/>
<path d="M2330 795 c0 -77 18 -88 22 -14 6 95 68 93 68 -2 0 -27 5 -49 10 -49
11 0 14 88 4 114 -4 12 -20 16 -55 16 l-49 0 0 -65z"/>
<path d="M2476 844 c-5 -13 -2 -14 11 -9 36 16 68 11 71 -10 2 -17 -3 -20 -40
-20 -40 0 -43 -2 -46 -29 -4 -36 11 -46 66 -44 l42 1 0 48 c0 71 -6 79 -55 79
-30 0 -45 -5 -49 -16z m83 -60 c13 -11 -13 -34 -39 -34 -23 0 -30 4 -30 19 0
11 6 22 13 24 11 5 47 -1 56 -9z"/>
<path d="M2670 770 c0 -53 4 -90 10 -90 6 0 10 13 10 28 0 26 2 28 32 24 39
-6 58 17 58 68 0 47 -15 60 -67 60 l-43 0 0 -90z m78 68 c14 -14 16 -57 3 -76
-4 -8 -19 -12 -32 -10 -20 2 -25 10 -27 42 -4 50 26 74 56 44z"/>
<path d="M2815 849 c-11 -17 2 -21 24 -7 15 9 26 10 38 2 33 -20 26 -34 -16
-34 -42 0 -63 -20 -53 -50 8 -23 24 -30 70 -28 l42 1 0 48 c0 71 -6 79 -55 79
-24 0 -47 -5 -50 -11z m70 -62 c24 -18 11 -37 -26 -37 -41 0 -40 43 2 49 3 1
13 -5 24 -12z"/>
<path d="M3390 795 c0 -37 4 -65 10 -65 6 0 10 28 10 65 0 37 -4 65 -10 65 -6
0 -10 -28 -10 -65z"/>
<path d="M3527 853 c-4 -3 -7 -30 -7 -59 0 -56 7 -64 60 -64 29 0 59 25 45 38
-4 4 -10 1 -12 -5 -3 -7 -20 -13 -39 -13 -27 0 -34 4 -34 20 0 17 7 20 45 20
38 0 45 3 45 19 0 41 -11 51 -54 51 -24 0 -46 -3 -49 -7z m67 -9 c30 -12 18
-34 -19 -34 -22 0 -35 5 -35 13 0 26 21 34 54 21z"/>
</g>
</svg>
