<svg width="87" height="87" xmlns="http://www.w3.org/2000/svg" xmlns:xlink="http://www.w3.org/1999/xlink" xml:space="preserve" overflow="hidden"><defs><clipPath id="clip0"><rect x="429" y="229" width="87" height="87"/></clipPath><clipPath id="clip1"><rect x="430" y="230" width="85" height="85"/></clipPath><clipPath id="clip2"><rect x="430" y="230" width="85" height="85"/></clipPath><clipPath id="clip3"><rect x="430" y="230" width="85" height="85"/></clipPath></defs><g clip-path="url(#clip0)" transform="translate(-429 -229)"><g clip-path="url(#clip1)"><g clip-path="url(#clip2)"><g clip-path="url(#clip3)"><path d="M477.37 279.318C474.182 277.901 471.26 275.776 468.958 272.943 467.63 271.349 466.568 269.667 465.771 267.807L437.083 271.526 439.474 290.828C440.802 301.542 450.542 309.068 461.255 307.74 471.969 306.411 479.495 296.672 478.167 285.958L477.37 279.318ZM461.521 277.547C462.052 276.75 463.115 276.484 464 276.927L468.161 279.495C468.958 280.026 469.224 281.089 468.781 281.974 468.427 282.505 467.896 282.859 467.276 282.859 466.922 282.859 466.656 282.771 466.391 282.594L462.229 280.026C461.344 279.495 461.078 278.432 461.521 277.547M447.708 282.24 450.896 278.609C451.516 277.901 452.667 277.812 453.375 278.432 454.083 279.052 454.172 280.203 453.552 280.911L450.365 284.542C450.01 284.896 449.568 285.161 449.036 285.161 448.594 285.161 448.24 284.984 447.885 284.719 447.177 284.099 447.089 282.948 447.708 282.24M470.021 295.875C469.224 296.495 468.161 296.318 467.542 295.521 465.594 292.953 462.495 291.625 459.307 292.068 456.12 292.422 453.464 294.547 452.224 297.469 451.958 298.177 451.25 298.531 450.63 298.531 450.365 298.531 450.188 298.443 449.922 298.354 449.036 298 448.594 296.938 448.948 296.052 450.719 291.979 454.526 289.057 458.865 288.526 463.292 287.995 467.63 289.854 470.375 293.396 470.995 294.193 470.818 295.344 470.021 295.875" fill="#133525" fill-rule="nonzero" fill-opacity="1"/><path d="M469.135 237.083 467.365 256.474C466.302 267.188 474.182 276.75 484.896 277.724 495.609 278.698 505.083 270.818 506.057 260.104L507.828 240.714 469.135 237.083ZM477.901 247.885 482.771 248.328C483.745 248.417 484.453 249.302 484.365 250.276 484.276 251.161 483.479 251.87 482.594 251.87 482.505 251.87 482.505 251.87 482.417 251.87L477.547 251.427C476.573 251.339 475.865 250.453 475.953 249.479 476.042 248.505 476.927 247.797 477.901 247.885M496.938 265.062C494.547 268.339 490.74 270.375 486.755 270.375 486.401 270.375 485.958 270.375 485.604 270.286 481.177 269.844 477.281 267.099 475.422 263.115 474.979 262.229 475.422 261.167 476.307 260.724 477.193 260.281 478.255 260.724 478.698 261.609 480.026 264.531 482.859 266.479 485.958 266.745 489.146 267.01 492.245 265.594 494.104 263.026 494.635 262.229 495.786 262.052 496.583 262.583 497.292 263.115 497.469 264.266 496.938 265.062M497.115 253.198C497.026 253.198 497.026 253.198 496.938 253.198L492.068 252.755C491.094 252.667 490.385 251.781 490.474 250.807 490.562 249.833 491.448 249.125 492.422 249.214L497.292 249.656C498.266 249.745 498.974 250.63 498.885 251.604 498.797 252.49 498 253.198 497.115 253.198" fill="#133525" fill-rule="nonzero" fill-opacity="1"/></g></g></g></g></svg>