<?xml version="1.0" standalone="no"?>
<!DOCTYPE svg PUBLIC "-//W3C//DTD SVG 20010904//EN"
 "http://www.w3.org/TR/2001/REC-SVG-20010904/DTD/svg10.dtd">
<svg version="1.0" xmlns="http://www.w3.org/2000/svg"
 width="64.000000pt" height="57.000000pt" viewBox="0 0 64.000000 57.000000"
 preserveAspectRatio="xMidYMid meet">

<g transform="translate(0.000000,57.000000) scale(0.100000,-0.100000)"
fill="#133525" stroke="none">
<path d="M240 550 c-25 -25 -25 -42 -2 -63 51 -46 115 19 66 67 -21 21 -40 20
-64 -4z"/>
<path d="M83 458 c-39 -42 -50 -76 -28 -84 12 -5 33 10 71 47 30 29 54 57 54
61 0 4 -15 8 -33 8 -24 0 -41 -9 -64 -32z"/>
<path d="M188 458 c-34 -27 -98 -110 -98 -128 0 -12 23 -35 59 -60 51 -36 62
-50 81 -101 22 -59 32 -67 59 -50 25 16 -30 140 -74 170 -19 13 -35 26 -35 30
0 4 14 23 31 44 l30 37 60 -31 c61 -30 79 -31 79 -1 0 11 -29 32 -80 60 -89
47 -90 47 -112 30z"/>
<path d="M381 296 c-32 -18 -50 -53 -51 -97 0 -47 30 -85 81 -100 l39 -12 -30
-18 c-32 -20 -40 -53 -14 -63 21 -8 172 -6 204 3 33 9 32 38 -2 64 -20 15 -43
20 -88 20 l-60 0 31 15 c67 33 76 127 18 176 -34 29 -88 34 -128 12z m108 -52
c26 -33 26 -55 4 -82 -42 -50 -123 -24 -123 39 0 65 80 93 119 43z"/>
<path d="M38 201 c-88 -79 7 -223 116 -177 72 30 90 118 37 175 -24 26 -36 31
-75 31 -36 0 -52 -6 -78 -29z m124 -28 c37 -33 18 -98 -35 -116 -27 -10 -74
18 -81 48 -6 25 7 64 28 77 20 13 69 8 88 -9z"/>
</g>
</svg>
