<svg width="86" height="87" xmlns="http://www.w3.org/2000/svg" xmlns:xlink="http://www.w3.org/1999/xlink" xml:space="preserve" overflow="hidden"><defs><clipPath id="clip0"><rect x="272" y="117" width="86" height="87"/></clipPath><clipPath id="clip1"><rect x="272" y="118" width="86" height="85"/></clipPath><clipPath id="clip2"><rect x="272" y="118" width="86" height="85"/></clipPath><clipPath id="clip3"><rect x="272" y="118" width="86" height="85"/></clipPath></defs><g clip-path="url(#clip0)" transform="translate(-272 -117)"><g clip-path="url(#clip1)"><g clip-path="url(#clip2)"><g clip-path="url(#clip3)"><path d="M69.0094 66.0609 69.0094 58.9776 79.413 59.863 72.4714 49.1849 76.7214 50.3271 71.7188 42.6948 74.8089 43.0844 67.4599 32.3974 63.688 37.9047 56.1797 26.3943 60.9786 26.9964 49.5833 10.1646 38.188 26.9875 42.987 26.3854 35.1865 38.3563 41.7828 36.5854 30.9896 53.3552 46.9271 50.3536 46.9271 61.2531C41.6854 61.3682 36.7979 62.5104 32.9818 64.9542 36.5234 66.7958 40.2687 69.9568 43.6865 75.2604L81.4583 75.2604C78.6073 71.6391 74.1714 68.4693 69.0094 66.0609ZM63.4667 38.2234 60.8813 42.0042 57.3396 36.5589ZM60.6156 52.0094 55.5068 59.863 65.5208 58.9776 65.5208 64.6354C60.9696 62.9151 56.2021 61.8335 51.3542 61.4214L51.3542 50.3536Z" fill="#133525" fill-rule="nonzero" fill-opacity="1" transform="matrix(1.01176 0 0 1 272 118)"/><path d="M28.5016 65.9281 28.3333 65.9281 28.3333 62.8646 32.7604 63.75 29.5198 57.7823 31.875 58.4375 29.0859 54.1964 30.8036 54.4089 26.5625 48.6979 22.6667 54.3911 24.3755 54.1786 22.8703 56.4719 19.55 51.1594 23.1979 52.1422 18.8859 45.5812 21.5422 45.9089 15.238 36.7094 8.93385 45.8911 11.5901 45.5635 7.27813 52.1245 10.926 51.1417 4.95833 60.3323 13.2812 59.3229 13.2812 68.1771C9.59287 69.8617 6.28072 72.2705 3.54167 75.2604L40.4813 75.2604C36.4703 69.638 32.1318 67.0526 28.5016 65.9281ZM15.9375 67.1412 15.9375 59.3229 22.888 60.1198 21.25 63.75 25.6771 62.8646 25.6771 65.7068C22.3719 65.6152 19.076 66.1007 15.9375 67.1412Z" fill="#133525" fill-rule="nonzero" fill-opacity="1" transform="matrix(1.01176 0 0 1 272 118)"/></g></g></g></g></svg>