<svg width="86" height="87" xmlns="http://www.w3.org/2000/svg" xmlns:xlink="http://www.w3.org/1999/xlink" xml:space="preserve" overflow="hidden"><defs><clipPath id="clip0"><rect x="586" y="117" width="86" height="87"/></clipPath><clipPath id="clip1"><rect x="587" y="118" width="85" height="85"/></clipPath><clipPath id="clip2"><rect x="587" y="118" width="85" height="85"/></clipPath><clipPath id="clip3"><rect x="587" y="118" width="85" height="85"/></clipPath></defs><g clip-path="url(#clip0)" transform="translate(-586 -117)"><g clip-path="url(#clip1)"><g clip-path="url(#clip2)"><g clip-path="url(#clip3)"><path d="M646.323 131.724C646.323 135.636 643.152 138.807 639.24 138.807 635.328 138.807 632.156 135.636 632.156 131.724 632.156 127.812 635.328 124.641 639.24 124.641 643.152 124.641 646.323 127.812 646.323 131.724Z" fill="#133525" fill-rule="nonzero" fill-opacity="1"/><path d="M607.365 166.255C599.042 166.255 592.312 172.984 592.312 181.307 592.312 189.63 599.042 196.359 607.365 196.359 615.688 196.359 622.417 189.63 622.417 181.307 622.417 172.984 615.688 166.255 607.365 166.255ZM607.365 192.818C600.99 192.818 595.854 187.682 595.854 181.307 595.854 174.932 600.99 169.797 607.365 169.797 613.74 169.797 618.875 174.932 618.875 181.307 618.875 187.682 613.74 192.818 607.365 192.818Z" fill="#133525" fill-rule="nonzero" fill-opacity="1"/><path d="M651.635 166.255C643.312 166.255 636.583 172.984 636.583 181.307 636.583 189.63 643.312 196.359 651.635 196.359 659.958 196.359 666.688 189.63 666.688 181.307 666.688 172.984 659.958 166.255 651.635 166.255ZM651.635 192.818C645.26 192.818 640.125 187.682 640.125 181.307 640.125 174.932 645.26 169.797 651.635 169.797 658.01 169.797 663.146 174.932 663.146 181.307 663.146 187.682 658.01 192.818 651.635 192.818Z" fill="#133525" fill-rule="nonzero" fill-opacity="1"/><path d="M636.318 153.24C637.026 153.948 637.911 154.302 638.797 154.302L648.979 154.302C650.927 154.302 652.521 152.708 652.521 150.76 652.521 148.812 650.927 147.219 648.979 147.219L640.302 147.219C640.302 147.219 630.208 137.036 630.031 136.948 627.818 135 624.453 135.266 622.505 137.479L610.464 151.203C608.516 153.417 608.781 156.781 610.906 158.729 611.438 159.172 611.969 159.526 612.589 159.703L625.87 165.016 625.87 181.219C625.87 183.167 627.464 184.76 629.411 184.76 631.359 184.76 632.953 183.167 632.953 181.219L632.953 162.625C632.953 161.208 632.068 159.88 630.828 159.349L621 155.188 629.057 145.979 636.318 153.24Z" fill="#133525" fill-rule="nonzero" fill-opacity="1"/></g></g></g></g></svg>