<svg width="87" height="87" xmlns="http://www.w3.org/2000/svg" xmlns:xlink="http://www.w3.org/1999/xlink" xml:space="preserve" overflow="hidden"><defs><clipPath id="clip0"><rect x="749" y="229" width="87" height="87"/></clipPath><clipPath id="clip1"><rect x="750" y="230" width="85" height="85"/></clipPath><clipPath id="clip2"><rect x="750" y="230" width="85" height="85"/></clipPath><clipPath id="clip3"><rect x="750" y="230" width="85" height="85"/></clipPath></defs><g clip-path="url(#clip0)" transform="translate(-749 -229)"><g clip-path="url(#clip1)"><g clip-path="url(#clip2)"><g clip-path="url(#clip3)"><path d="M810.208 256.74C808.083 256.74 806.312 254.969 806.401 252.755 806.401 250.63 808.172 248.859 810.297 248.859 812.422 248.859 814.193 250.63 814.193 252.755 814.193 253.818 813.75 254.792 813.042 255.5 812.245 256.297 811.271 256.74 810.208 256.74ZM806.401 244.432C804.453 245.141 802.948 246.646 801.974 248.417 800.734 250.807 800.557 253.552 801.531 256.031L805.781 265.24 808.615 271.083C808.88 271.703 809.5 272.057 810.208 272.057 810.917 272.057 811.536 271.703 811.802 271.083L814.635 265.24 818.885 256.12C819.328 255.057 819.505 253.906 819.505 252.755 819.505 246.557 813.13 241.865 806.401 244.432Z" fill="#133525" fill-rule="nonzero" fill-opacity="1"/><path d="M790.729 294.458 776.562 287.375 776.562 258.51 790.729 265.594 790.729 294.458ZM773.021 287.375 762.396 292.688 762.396 263.823 773.021 258.51 773.021 287.375ZM822.073 257.625 819.859 262.406 822.604 263.823 822.604 292.688 811.979 287.375 811.979 275.599 808.438 275.599 808.438 287.375 794.271 294.458 794.271 265.594 800.557 262.406 798.344 257.625 792.5 260.547 774.792 251.693 757.083 260.547 757.083 301.276 774.792 292.422 792.5 301.276 810.208 292.422 827.917 301.276 827.917 260.547 822.073 257.625Z" fill="#133525" fill-rule="nonzero" fill-opacity="1"/></g></g></g></g></svg>