<svg width="87" height="87" xmlns="http://www.w3.org/2000/svg" xmlns:xlink="http://www.w3.org/1999/xlink" xml:space="preserve" overflow="hidden"><defs><clipPath id="clip0"><rect x="429" y="117" width="87" height="87"/></clipPath><clipPath id="clip1"><rect x="430" y="118" width="85" height="85"/></clipPath><clipPath id="clip2"><rect x="430" y="118" width="85" height="85"/></clipPath><clipPath id="clip3"><rect x="430" y="118" width="85" height="85"/></clipPath></defs><g clip-path="url(#clip0)" transform="translate(-429 -117)"><g clip-path="url(#clip1)"><g clip-path="url(#clip2)"><g clip-path="url(#clip3)"><path d="M484.01 129.51C484.01 133.422 480.839 136.594 476.927 136.594 473.015 136.594 469.844 133.422 469.844 129.51 469.844 125.598 473.015 122.427 476.927 122.427 480.839 122.427 484.01 125.598 484.01 129.51Z" fill="#133525" fill-rule="nonzero" fill-opacity="1"/><path d="M475.776 166.432 478.167 154.479 479.849 158.375C480.292 159.26 481 159.969 481.974 160.323L489.323 162.802 482.505 171.391 475.776 166.432ZM494.901 157.135 485.781 154.125C485.781 154.125 480.734 142.438 480.557 142.083 479.318 139.781 476.927 138.365 474.359 138.365 473.297 138.365 472.323 138.63 471.349 139.073 469.401 139.87 467.984 141.464 467.63 143.5L465.682 152.885 460.458 178.385 448.505 192.818C447.266 194.323 447.443 196.536 448.948 197.776 449.568 198.307 450.365 198.573 451.161 198.573 452.224 198.573 453.198 198.13 453.906 197.245L466.302 182.193C466.656 181.75 466.922 181.219 467.01 180.688L469.135 170.417 478.078 176.88 463.115 195.74C462.672 196.271 462.583 196.891 462.849 197.51 463.115 198.13 463.646 198.573 464.266 198.661 464.885 198.75 465.505 198.484 465.948 197.953L478.698 181.839 478.698 194.943C478.698 196.802 480.026 198.396 481.885 198.661 482.859 198.75 483.922 198.396 484.63 197.776 485.339 197.068 485.781 196.182 485.781 195.12L485.781 175.552C485.781 174.844 485.604 174.224 485.161 173.604L492.865 163.953C493.13 164.042 493.484 164.042 493.75 164.042 495.255 164.042 496.583 163.068 497.115 161.651 497.38 160.766 497.38 159.792 496.938 158.906 496.495 158.109 495.786 157.401 494.901 157.135Z" fill="#133525" fill-rule="nonzero" fill-opacity="1"/><path d="M457.714 135.354C457.891 134.38 458.865 133.76 459.75 133.938 460.724 134.115 461.344 135.089 461.167 135.974 460.99 136.948 460.016 137.568 459.13 137.391 458.156 137.214 457.536 136.24 457.714 135.354ZM465.505 136.771C466.036 134.026 464.62 131.193 462.052 130.042 459.484 128.891 456.474 129.51 454.615 131.635 452.755 133.76 452.667 136.859 454.26 139.161 453.375 138.984 452.49 139.604 452.312 140.578L449.036 156.87C448.594 158.729 449.036 160.589 450.276 162.094 451.427 163.599 453.198 164.396 455.057 164.396 458.068 164.307 460.547 162.094 461.078 159.172L464.354 142.88C464.443 142.438 464.354 141.995 464.089 141.552 463.823 141.198 463.469 140.932 463.026 140.755L462.849 140.755C464.266 139.958 465.24 138.453 465.505 136.771Z" fill="#133525" fill-rule="nonzero" fill-opacity="1"/></g></g></g></g></svg>