<svg width="86" height="85" xmlns="http://www.w3.org/2000/svg" xmlns:xlink="http://www.w3.org/1999/xlink" xml:space="preserve" overflow="hidden"><defs><clipPath id="clip0"><rect x="586" y="224" width="86" height="85"/></clipPath><clipPath id="clip1"><rect x="587" y="224" width="85" height="85"/></clipPath><clipPath id="clip2"><rect x="587" y="224" width="85" height="85"/></clipPath><clipPath id="clip3"><rect x="587" y="224" width="85" height="85"/></clipPath></defs><g clip-path="url(#clip0)" transform="translate(-586 -224)"><g clip-path="url(#clip1)"><g clip-path="url(#clip2)"><g clip-path="url(#clip3)"><path d="M662.597 256.211 655.584 249.199C654.757 248.374 653.637 247.909 652.468 247.906L651.928 247.906 651.538 246.587C651.215 245.489 651.844 244.338 652.941 244.015 653.133 243.959 653.331 243.93 653.53 243.931L659.604 243.931C660.338 243.931 660.932 243.336 660.932 242.603 660.932 241.869 660.338 241.274 659.604 241.274L653.53 241.274C652.167 241.278 650.874 241.876 649.989 242.913 649.966 242.562 649.966 242.21 649.989 241.859 650.503 237.579 653.954 234.25 658.25 233.89L659.294 233.74C660.028 233.666 660.563 233.012 660.49 232.279 660.416 231.545 659.762 231.01 659.029 231.083L657.975 231.19C652.407 231.683 647.961 236.037 647.35 241.593 647.147 243.765 647.552 245.951 648.519 247.906L643.667 247.906 647.208 251.448 640.833 259.24C639.825 260.472 638.317 261.187 636.725 261.188L603.823 261.188C600.889 261.188 598.51 263.566 598.51 266.5L598.51 275.354 602.052 273.76 602.052 279.781C602.053 278.314 600.864 277.124 599.397 277.124 599.37 277.124 599.343 277.124 599.316 277.125 597.859 277.205 596.723 278.419 596.74 279.879L596.74 299.26C596.74 300.727 597.929 301.917 599.396 301.917 600.863 301.917 602.052 300.727 602.052 299.26L602.052 284.908C603.427 285.704 605.165 285.487 606.302 284.377L611.88 278.798C614.332 280.008 617.026 280.647 619.76 280.667L631.271 280.667 631.271 299.26C631.24 300.698 632.379 301.888 633.817 301.919 633.88 301.921 633.943 301.92 634.007 301.917 635.47 301.841 636.609 300.619 636.583 299.154L636.583 280.667C637.788 280.641 638.983 280.432 640.125 280.047L640.125 299.26C640.094 300.698 641.234 301.888 642.671 301.919 642.734 301.921 642.798 301.92 642.861 301.917 644.324 301.841 645.463 300.619 645.438 299.154L645.438 278.533 648.51 276.284C649.576 275.507 650.314 274.361 650.582 273.07L653.406 259.417 661.269 259.417C662.305 259.418 663.147 258.578 663.148 257.541 663.148 257.042 662.95 256.564 662.597 256.211Z" fill="#133525" fill-rule="nonzero" fill-opacity="1"/><path d="M607.551 285.616C606.992 286.164 606.326 286.589 605.594 286.865L605.594 299.26C605.594 300.727 606.783 301.917 608.25 301.917 609.717 301.917 610.906 300.727 610.906 299.26L610.906 284.908C612.282 285.704 614.019 285.487 615.156 284.377L617.281 282.252C615.543 282.06 613.842 281.612 612.234 280.923Z" fill="#133525" fill-rule="nonzero" fill-opacity="1"/></g></g></g></g></svg>